<svg xmlns="http://www.w3.org/2000/svg" viewBox="0 0 48 48"><defs><style>.cls-1{fill:none;}.cls-2{fill:#fff;}</style></defs><g id="Layer_2" data-name="Layer 2"><g id="Layer_1-2" data-name="Layer 1"><path class="cls-1" d="M24,48H.4c-.3,0-.4,0-.4-.37Q0,24,0,.36C0,.06.07,0,.36,0H47.63c.26,0,.37,0,.37.35Q48,24,48,47.67c0,.34-.13.33-.38.33ZM2.16,28.11v6.36a8.74,8.74,0,0,0,.23,2A8.89,8.89,0,0,0,11,43.42c3.71,0,7.42,0,11.13,0h.24A1.47,1.47,0,0,0,23.68,42,1.51,1.51,0,0,0,22,40.43c-3.68,0-7.36,0-11,0a5.89,5.89,0,0,1-5.82-5.9c0-4.27,0-8.54,0-12.81a5.8,5.8,0,0,1,.24-1.66,6,6,0,0,1,2.29-3.21l11-8.11a6.1,6.1,0,0,1,3.36-1.25A6.53,6.53,0,0,1,26.41,9c3.53,2.64,7.09,5.23,10.64,7.84a1.51,1.51,0,0,0,2.23-.23,1.52,1.52,0,0,0-.48-2.19q-5.52-4.07-11.06-8.13A8.84,8.84,0,0,0,17,6.27q-5.58,4.08-11.14,8.2a8.82,8.82,0,0,0-3.71,7.38C2.15,23.94,2.16,26,2.16,28.11Zm32,15.32A11.79,11.79,0,1,0,22.36,31.62,11.79,11.79,0,0,0,34.14,43.43Z"/><path class="cls-2" d="M2.16,28.11c0-2.08,0-4.17,0-6.26a8.82,8.82,0,0,1,3.71-7.38Q11.42,10.35,17,6.27a8.84,8.84,0,0,1,10.73,0q5.55,4.05,11.06,8.13a1.52,1.52,0,0,1,.48,2.19,1.51,1.51,0,0,1-2.23.23C33.5,14.21,29.94,11.62,26.41,9a6.53,6.53,0,0,0-4.35-1.5A6.1,6.1,0,0,0,18.7,8.73l-11,8.11a6,6,0,0,0-2.29,3.21,5.8,5.8,0,0,0-.24,1.66c0,4.27,0,8.54,0,12.81A5.89,5.89,0,0,0,11,40.42c3.68,0,7.36,0,11,0A1.51,1.51,0,0,1,23.68,42a1.47,1.47,0,0,1-1.32,1.4h-.24c-3.71,0-7.42,0-11.13,0a8.89,8.89,0,0,1-8.6-6.91,8.74,8.74,0,0,1-.23-2Z"/><path class="cls-2" d="M34.14,43.43A11.79,11.79,0,1,1,45.93,31.69,11.79,11.79,0,0,1,34.14,43.43Zm0-3a8.8,8.8,0,1,0-8.74-8.88A8.79,8.79,0,0,0,34.1,40.43Z"/><path class="cls-1" d="M34.1,40.43a8.8,8.8,0,1,1,8.84-8.7A8.78,8.78,0,0,1,34.1,40.43Zm3.06-6.9h1A1.51,1.51,0,0,0,39.82,32a1.54,1.54,0,0,0-1.63-1.5c-.73,0-1.47,0-2.2,0-.3,0-.36-.09-.35-.37,0-.73,0-1.46,0-2.2a1.5,1.5,0,1,0-3,0c0,.74,0,1.49,0,2.24,0,.26-.07.34-.34.34-.74,0-1.49,0-2.24,0A1.52,1.52,0,0,0,28.48,32a1.5,1.5,0,0,0,1.6,1.51c.72,0,1.44,0,2.15,0,.37,0,.44.1.43.44,0,.72,0,1.44,0,2.15a1.5,1.5,0,1,0,3,0c0-.74,0-1.47,0-2.2,0-.32.06-.45.4-.42S36.79,33.53,37.16,33.53Z"/><path class="cls-2" d="M37.16,33.53c-.37,0-.75,0-1.12,0s-.41.1-.4.42c0,.73,0,1.46,0,2.2a1.5,1.5,0,1,1-3,0c0-.71,0-1.43,0-2.15,0-.34-.06-.46-.43-.44-.71,0-1.43,0-2.15,0A1.5,1.5,0,0,1,28.48,32a1.52,1.52,0,0,1,1.6-1.48c.75,0,1.5,0,2.24,0,.27,0,.34-.08.34-.34,0-.75,0-1.5,0-2.24a1.5,1.5,0,1,1,3,0c0,.74,0,1.47,0,2.2,0,.28,0,.38.35.37.73,0,1.47,0,2.2,0A1.54,1.54,0,0,1,39.82,32a1.51,1.51,0,0,1-1.63,1.49Z"/></g></g></svg>