<svg width="48" height="48" viewBox="0 0 48 48" fill="none" xmlns="http://www.w3.org/2000/svg">
<g clip-path="url(#clip0_294_3)">
<path d="M13.47 4.42006C15.0535 4.38492 16.6273 4.6747 18.0944 5.27152C19.5615 5.86833 20.8907 6.75952 22 7.89006C22.61 8.49006 23.23 9.09006 23.81 9.71006C24.05 9.96006 24.17 9.92006 24.39 9.71006C25.4205 8.58118 26.5408 7.53775 27.74 6.59006C29.392 5.42835 31.3105 4.70237 33.3177 4.47938C35.325 4.25639 37.356 4.54361 39.2227 5.31442C41.0894 6.08523 42.7314 7.3147 43.9965 8.88893C45.2616 10.4632 46.1089 12.3312 46.46 14.3201C46.8315 16.1643 46.737 18.072 46.1852 19.8705C45.6335 21.669 44.6418 23.3015 43.3 24.6201C37.1 30.8501 30.88 37.0001 24.68 43.2101C24.6101 43.3111 24.5167 43.3937 24.4078 43.4508C24.299 43.5079 24.1779 43.5377 24.055 43.5377C23.9321 43.5377 23.811 43.5079 23.7022 43.4508C23.5933 43.3937 23.4999 43.3111 23.43 43.2101C17.23 37.0001 11 30.8701 4.84 24.5901C3.29812 23.0962 2.21677 21.1916 1.72406 19.102C1.23135 17.0124 1.34793 14.8254 2.06 12.8001C2.65551 10.7359 3.8121 8.87742 5.40104 7.43148C6.98998 5.98554 8.94897 5.00884 11.06 4.61006C11.4718 4.52003 11.8895 4.45987 12.31 4.43006C12.66 4.39006 13.07 4.42006 13.47 4.42006ZM13.47 5.87006C12.3944 5.85852 11.324 6.02061 10.3 6.35006C8.58623 6.88501 7.03919 7.85245 5.80802 9.15912C4.57686 10.4658 3.70309 12.0676 3.27098 13.8102C2.83886 15.5527 2.86296 17.3772 3.34097 19.1077C3.81897 20.8382 4.73474 22.4164 6 23.6901C11.87 29.6901 17.84 35.5601 23.76 41.4901C23.96 41.6901 24.07 41.7001 24.27 41.4901C30.21 35.5701 36.14 29.6701 42 23.7301C43.1918 22.5875 44.0823 21.1677 44.5918 19.5973C45.1013 18.0268 45.2141 16.3547 44.92 14.7301C44.6801 12.8204 43.891 11.0214 42.6483 9.5516C41.4057 8.08178 39.7631 7.00433 37.92 6.45006C36.1179 5.79642 34.1665 5.67128 32.2957 6.08939C30.4248 6.50749 28.7124 7.45143 27.36 8.81006C26.45 9.66006 25.59 10.5701 24.71 11.4501C24.6381 11.5594 24.5401 11.6492 24.4249 11.7113C24.3097 11.7734 24.1809 11.8059 24.05 11.8059C23.9191 11.8059 23.7903 11.7734 23.6751 11.7113C23.5599 11.6492 23.4619 11.5594 23.39 11.4501C22.51 10.5901 21.66 9.70006 20.77 8.85006C18.8307 6.93026 16.2088 5.85848 13.48 5.87006H13.47Z" fill="white"/>
<path d="M13.4638 7.37003L13.4736 7.37013L13.4834 7.37011C15.8172 7.36476 18.0576 8.28674 19.7117 9.93322L19.7227 9.94416L19.7339 9.95487C20.244 10.442 20.7026 10.9042 21.176 11.3812C21.5196 11.7274 21.871 12.0815 22.2555 12.4586C22.4482 12.7018 22.6889 12.9038 22.9632 13.0517C23.2971 13.2317 23.6706 13.3259 24.0499 13.3259C24.4293 13.3259 24.8027 13.2317 25.1367 13.0517C25.4142 12.902 25.6572 12.6971 25.851 12.4502C26.1178 12.1826 26.3753 11.9205 26.6282 11.6631C27.2172 11.0634 27.7818 10.4886 28.3838 9.9263L28.4077 9.90403L28.4305 9.88075C29.5835 8.7059 31.0507 7.8884 32.6565 7.5262C34.2622 7.164 35.9384 7.27247 37.484 7.83861L37.5256 7.85383L37.568 7.86657C39.133 8.33719 40.5277 9.25205 41.5828 10.5001C42.6379 11.7481 43.3079 13.2756 43.5116 14.8971L43.5167 14.9373L43.5239 14.9773C43.7739 16.3582 43.678 17.7795 43.2449 19.1144C42.8118 20.4493 42.055 21.6561 41.0419 22.6273L41.0286 22.64L41.0157 22.653C37.2626 26.4315 33.4998 30.1915 29.7353 33.9531C27.8506 35.8364 25.9654 37.7201 24.0809 39.6067C23.4066 38.9383 22.7324 38.2703 22.0583 37.6024C17.0391 32.6293 12.0288 27.665 7.06772 22.6366L7.06445 22.6333C5.98092 21.5419 5.19693 20.1896 4.78809 18.707C4.37925 17.2244 4.35937 15.6614 4.73035 14.1689C5.10133 12.6764 5.85067 11.3046 6.90607 10.1859C7.96148 9.06728 9.28735 8.23946 10.7558 7.78232L10.7626 7.78021L10.7693 7.77803C11.6397 7.49799 12.5496 7.36022 13.4638 7.37003ZM24.8906 40.4094L24.8891 40.4079C24.8949 40.4134 24.8955 40.4144 24.8906 40.4094Z" stroke="white" stroke-width="3"/>
</g>
<defs>
<clipPath id="clip0_294_3">
<rect width="48" height="48" fill="white"/>
</clipPath>
</defs>
</svg>
