<svg xmlns="http://www.w3.org/2000/svg" viewBox="0 0 48 48"><defs><style>.cls-1{fill:none;}.cls-2{fill:#fff;}</style></defs><g id="Layer_2" data-name="Layer 2"><g id="Layer_1-2" data-name="Layer 1"><path class="cls-1" d="M24,48H.39C.08,48,0,48,0,47.62Q0,24,0,.4C0,0,.1,0,.41,0H47.59c.32,0,.41.05.41.4Q48,24,48,47.58c0,.36-.1.42-.44.42ZM13.47,4.42c-.4,0-.81,0-1.21,0A8.75,8.75,0,0,0,11,4.61,11.61,11.61,0,0,0,2.06,12.8,11.23,11.23,0,0,0,4.84,24.59C11,30.87,17.23,37,23.43,43.23a.76.76,0,0,0,1.25,0C30.88,37,37.1,30.85,43.25,24.61a11.31,11.31,0,0,0,3.16-10.3A12,12,0,0,0,27.69,6.58,28.26,28.26,0,0,0,24.34,9.7c-.22.22-.34.26-.58,0-.58-.62-1.2-1.22-1.81-1.82A11.59,11.59,0,0,0,13.47,4.42Z"/><path class="cls-2" d="M13.47,4.42A11.59,11.59,0,0,1,22,7.89c.61.6,1.23,1.2,1.81,1.82.24.25.36.21.58,0a28.26,28.26,0,0,1,3.35-3.12,12,12,0,0,1,18.72,7.73,11.31,11.31,0,0,1-3.16,10.3C37.1,30.85,30.88,37,24.68,43.21a.76.76,0,0,1-1.25,0C17.23,37,11,30.87,4.84,24.59A11.23,11.23,0,0,1,2.06,12.8a11.61,11.61,0,0,1,9-8.19,8.75,8.75,0,0,1,1.25-.18C12.66,4.39,13.07,4.42,13.47,4.42Zm0,1.45a10,10,0,0,0-3.17.48A10.45,10.45,0,0,0,6,23.69c5.87,6,11.84,11.87,17.76,17.8.2.2.31.21.51,0C30.21,35.57,36.14,29.67,42,23.73a10,10,0,0,0,2.92-9,9.94,9.94,0,0,0-7-8.28A10.06,10.06,0,0,0,27.36,8.81c-.91.85-1.77,1.76-2.65,2.64a.79.79,0,0,1-1.32,0c-.88-.86-1.73-1.75-2.62-2.6A10.3,10.3,0,0,0,13.48,5.87Z"/><path class="cls-1" d="M13.48,5.87a10.3,10.3,0,0,1,7.29,3c.89.85,1.74,1.74,2.62,2.6a.79.79,0,0,0,1.32,0c.88-.88,1.74-1.79,2.65-2.64A10.06,10.06,0,0,1,38,6.43a9.94,9.94,0,0,1,7,8.28,10,10,0,0,1-2.92,9c-5.9,5.94-11.83,11.84-17.74,17.76-.2.21-.31.2-.51,0C17.87,35.56,11.9,29.67,6,23.69A10.45,10.45,0,0,1,10.31,6.35,10,10,0,0,1,13.48,5.87Z"/></g></g></svg>