<svg xmlns="http://www.w3.org/2000/svg" viewBox="0 0 384 384"><defs><style>.cls-1{fill:none;}.cls-2{fill:#666;}</style></defs><g id="Layer_2" data-name="Layer 2"><g id="Layer_1-2" data-name="Layer 1"><path class="cls-1" d="M.07,192Q.07,97.53,0,3.06C0,.5.5,0,3.06,0Q192,.12,380.94,0C383.5,0,384,.5,384,3.06q-.12,188.94,0,377.88c0,2.56-.5,3.06-3.06,3.06Q192,383.88,3.07,384C.5,384,0,383.5,0,380.94Q.14,286.47.07,192ZM191.45,351.94q50.88,0,101.76,0a62.5,62.5,0,0,0,10.43-.59c28.65-4.91,47.48-27.22,47.53-56.4.07-43.89,0-87.79,0-131.68,0-20.8-8.66-36.93-25.78-48.63q-50.1-34.26-100.17-68.56c-21.85-15-45.41-14.93-67.26,0Q107.76,80.48,57.51,114.87c-16.73,11.46-25.41,27.3-25.43,47.65q-.07,66.58,0,133.18a55.18,55.18,0,0,0,1.27,12.62c6.08,26.05,28.1,43.52,55.24,43.6C122.87,352,157.16,351.94,191.45,351.94Z"/><path class="cls-2" d="M191.45,351.94c-34.29,0-68.58.07-102.88,0-27.14-.08-49.16-17.55-55.24-43.6a55.18,55.18,0,0,1-1.27-12.62q0-66.6,0-133.18c0-20.35,8.7-36.19,25.43-47.65Q107.73,80.46,158,46.09c21.85-15,45.41-15,67.26,0q50.08,34.29,100.17,68.56c17.12,11.7,25.79,27.83,25.78,48.63,0,43.89,0,87.79,0,131.68-.05,29.18-18.88,51.49-47.53,56.4a62.5,62.5,0,0,1-10.43.59Q242.33,352,191.45,351.94Zm.06-55.73q19.25,0,38.51,0c3.42,0,6.42-.83,8.31-4,3.42-5.7-.64-12.06-7.89-12.12-12.33-.1-24.68,0-37,0-13.34,0-26.68,0-40,0-3.57,0-6.69.82-8.6,4.13-3.3,5.69.9,11.93,8.18,12C165.83,296.27,178.67,296.21,191.51,296.21Z"/><path class="cls-1" d="M191.51,296.21c-12.84,0-25.68.06-38.52,0-7.28-.05-11.48-6.29-8.18-12,1.91-3.31,5-4.14,8.6-4.13,13.34,0,26.68,0,40,0,12.33,0,24.68-.07,37,0,7.25.06,11.31,6.42,7.89,12.12-1.89,3.15-4.89,4-8.31,4Q210.76,296.19,191.51,296.21Z"/></g></g></svg>