<svg xmlns="http://www.w3.org/2000/svg" viewBox="0 0 48 48"><defs><style>.cls-1{fill:none;}.cls-2{fill:#fff;}</style></defs><g id="Layer_2" data-name="Layer 2"><g id="Layer_1-2" data-name="Layer 1"><path class="cls-1" d="M24,48H.39C.07,48,0,47.94,0,47.62Q0,24,0,.4C0,0,.11,0,.42,0H47.59c.34,0,.41.07.41.41Q48,24,48,47.58c0,.38-.11.42-.44.42ZM19.56,46.4H29.71a7.54,7.54,0,0,0,5.15-2A8.08,8.08,0,0,0,37.4,36.8a13.11,13.11,0,0,0-13-11.35c-3.24,0-6.49-.07-9.73,0a12.76,12.76,0,0,0-12,7.89,10.76,10.76,0,0,0-1,6.65,7.76,7.76,0,0,0,7.8,6.39ZM30,12a10.48,10.48,0,1,0-10.47,10.5A10.47,10.47,0,0,0,30,12Zm11.56,6.76h-10a1.5,1.5,0,1,0,0,3h9.44a.69.69,0,0,1,.46.06c-.82.89-1.63,1.76-2.43,2.66a1.48,1.48,0,0,0,.09,2.13,1.46,1.46,0,0,0,2.09-.1c1.62-1.73,3.22-3.48,4.81-5.23a1.44,1.44,0,0,0,0-2c-1.59-1.76-3.2-3.5-4.8-5.24a1.44,1.44,0,0,0-1.45-.44A1.49,1.49,0,0,0,39.1,16C39.89,16.89,40.71,17.76,41.59,18.72Z"/><path class="cls-2" d="M19.56,46.4h-10A7.76,7.76,0,0,1,1.75,40a10.76,10.76,0,0,1,1-6.65,12.76,12.76,0,0,1,12-7.89c3.24-.09,6.49,0,9.73,0a13.11,13.11,0,0,1,13,11.35,8.08,8.08,0,0,1-2.54,7.63,7.54,7.54,0,0,1-5.15,2Zm0-3c3.35,0,6.7,0,10.05,0a4.71,4.71,0,0,0,4.51-2.91A5.75,5.75,0,0,0,34.4,37a10.09,10.09,0,0,0-10-8.56c-3.21,0-6.42,0-9.63,0A10.12,10.12,0,0,0,4.61,37.85a4.89,4.89,0,0,0,5.14,5.56Z"/><path class="cls-2" d="M30,12A10.48,10.48,0,1,1,19.53,1.51,10.49,10.49,0,0,1,30,12Zm-18,0A7.48,7.48,0,1,0,19.59,4.5,7.47,7.47,0,0,0,12.08,12Z"/><path class="cls-2" d="M41.59,18.72c-.88-1-1.7-1.83-2.49-2.72a1.49,1.49,0,0,1,.74-2.48,1.44,1.44,0,0,1,1.45.44c1.6,1.74,3.21,3.48,4.8,5.24a1.44,1.44,0,0,1,0,2c-1.59,1.75-3.19,3.5-4.81,5.23a1.46,1.46,0,0,1-2.09.1,1.48,1.48,0,0,1-.09-2.13c.8-.9,1.61-1.77,2.43-2.66a.69.69,0,0,0-.46-.06H31.63a1.5,1.5,0,1,1,0-3h10Z"/><path class="cls-1" d="M19.56,43.41H9.75a4.89,4.89,0,0,1-5.14-5.56,10.12,10.12,0,0,1,10.13-9.41c3.21,0,6.42,0,9.63,0A10.09,10.09,0,0,1,34.4,37a5.75,5.75,0,0,1-.28,3.48,4.71,4.71,0,0,1-4.51,2.91C26.26,43.43,22.91,43.41,19.56,43.41Z"/><path class="cls-1" d="M12.08,12a7.48,7.48,0,1,1,7.44,7.51A7.49,7.49,0,0,1,12.08,12Z"/></g></g></svg>