<svg xmlns="http://www.w3.org/2000/svg" viewBox="0 0 409.6 409.6"><defs><style>.cls-1{fill:none;}.cls-2{fill:#f33;}</style></defs><g id="Layer_2" data-name="Layer 2"><g id="Layer_1-2" data-name="Layer 1"><path class="cls-1" d="M.08,131.77Q.08,67.52,0,3.27C0,.53.54,0,3.27,0Q204.8.14,406.33,0c2.73,0,3.27.54,3.27,3.27q-.14,201.52,0,403.06c0,2.73-.54,3.27-3.27,3.27q-201.52-.14-403.06,0c-2.73,0-3.27-.54-3.27-3.27Q.15,283,.08,159.7c1.53,1.08,1.15,2.87,1.34,4.29,2.92,22.31,11.71,42.29,24,60.92,17,25.79,38.78,47.21,61.47,67.77,32.63,29.56,66.55,57.63,99.8,86.46a37.12,37.12,0,0,0,6.43,4.69c9.35,5.08,19.51,3.53,28.67-4.31q28.32-24.27,56.57-48.62c27.09-23.37,54.52-46.38,78.81-72.77,15.9-17.28,30.36-35.66,39.6-57.46,19-44.94,16.27-88.45-10.75-129.42-24.68-37.42-71.9-55.51-115.57-45.16-26.65,6.32-47.13,21.9-63.54,43.29-2,2.55-2.83,2.85-4.9.07A118.3,118.3,0,0,0,162.23,35c-21.78-11.45-44.84-14.16-68.86-9.78A105.76,105.76,0,0,0,39.84,51.7C17.7,72,5.46,97.47,1.46,127.1,1.24,128.66,1.68,130.56.08,131.77Z"/><path class="cls-2" d="M.08,131.77c1.6-1.21,1.16-3.11,1.38-4.67C5.46,97.47,17.7,72,39.84,51.7A105.76,105.76,0,0,1,93.37,25.24c24-4.38,47.08-1.67,68.86,9.78A118.3,118.3,0,0,1,202,69.45c2.07,2.78,2.95,2.48,4.9-.07,16.41-21.39,36.89-37,63.54-43.29C314.08,15.74,361.3,33.83,386,71.25c27,41,29.78,84.48,10.75,129.42-9.24,21.8-23.7,40.18-39.6,57.46-24.29,26.39-51.72,49.4-78.81,72.77q-28.23,24.36-56.57,48.62c-9.16,7.84-19.32,9.39-28.67,4.31a37.12,37.12,0,0,1-6.43-4.69c-33.25-28.83-67.17-56.9-99.8-86.46-22.69-20.56-44.51-42-61.47-67.77-12.25-18.63-21-38.61-24-60.92-.19-1.42.19-3.21-1.34-4.29ZM385,146.51c-.33-4.64-.45-9.31-1-13.92-3.94-31-17.09-56.78-44.59-73-25.76-15.22-52.95-17.1-80.34-3.92-16,7.69-27.79,20.23-37.75,34.63-1.66,2.41-3.12,5-4.88,7.28-6.18,8.11-18,8.23-23.89-.07-5.8-8.1-11.2-16.47-18.2-23.65-21.71-22.27-47.92-31.25-78.35-24.67-33,7.12-54.59,28-65.5,59.49C17.73,145.24,24,179.53,45.11,211.49c13,19.65,29.1,36.61,46.19,52.63,35.81,33.57,73.88,64.57,110.81,96.86,2.19,1.91,3.25,1,4.87-.35,32.23-28,65.1-55.21,96.8-83.8,22.24-20.06,43.79-40.8,60.37-66C377,191.28,384.71,170.13,385,146.51Z"/><path class="cls-2" d="M385,146.51c-.25,23.62-8,44.77-20.81,64.27-16.58,25.25-38.13,46-60.37,66-31.7,28.59-64.57,55.83-96.8,83.8-1.62,1.4-2.68,2.26-4.87.35-36.93-32.29-75-63.29-110.81-96.86-17.09-16-33.2-33-46.19-52.63-21.15-32-27.38-66.25-14.69-102.83C41.33,77.17,63,56.29,95.92,49.17c30.43-6.58,56.64,2.4,78.35,24.67,7,7.18,12.4,15.55,18.2,23.65,5.93,8.3,17.71,8.18,23.89.07,1.76-2.32,3.22-4.87,4.88-7.28C231.2,75.88,243,63.34,259,55.65c27.39-13.18,54.58-11.3,80.34,3.92,27.5,16.24,40.65,42,44.59,73C384.51,137.2,384.63,141.87,385,146.51Z"/></g></g></svg>