<svg width="48" height="48" viewBox="0 0 48 48" fill="none" xmlns="http://www.w3.org/2000/svg">
<g clip-path="url(#clip0_294_3)">
<path d="M13.47 4.42006C15.0535 4.38492 16.6273 4.6747 18.0944 5.27152C19.5615 5.86833 20.8907 6.75952 22 7.89006C22.61 8.49006 23.23 9.09006 23.81 9.71006C24.05 9.96006 24.17 9.92006 24.39 9.71006C25.4205 8.58118 26.5408 7.53775 27.74 6.59006C29.392 5.42835 31.3105 4.70237 33.3177 4.47938C35.325 4.25639 37.356 4.54361 39.2227 5.31442C41.0894 6.08523 42.7314 7.3147 43.9965 8.88893C45.2616 10.4632 46.1089 12.3312 46.46 14.3201C46.8315 16.1643 46.737 18.072 46.1852 19.8705C45.6335 21.669 44.6418 23.3015 43.3 24.6201C37.1 30.8501 30.88 37.0001 24.68 43.2101C24.6101 43.3111 24.5167 43.3937 24.4078 43.4508C24.299 43.5079 24.1779 43.5377 24.055 43.5377C23.9321 43.5377 23.811 43.5079 23.7022 43.4508C23.5933 43.3937 23.4999 43.3111 23.43 43.2101C17.23 37.0001 11 30.8701 4.84 24.5901C3.29812 23.0962 2.21677 21.1916 1.72406 19.102C1.23135 17.0124 1.34793 14.8254 2.06 12.8001C2.65551 10.7359 3.8121 8.87742 5.40104 7.43148C6.98998 5.98554 8.94897 5.00884 11.06 4.61006C11.4718 4.52003 11.8895 4.45987 12.31 4.43006C12.66 4.39006 13.07 4.42006 13.47 4.42006ZM13.47 5.87006C12.3944 5.85852 11.324 6.02061 10.3 6.35006C8.58623 6.88501 7.03919 7.85245 5.80802 9.15912C4.57686 10.4658 3.70309 12.0676 3.27098 13.8102C2.83886 15.5527 2.86296 17.3772 3.34097 19.1077C3.81897 20.8382 4.73474 22.4164 6 23.6901C11.87 29.6901 17.84 35.5601 23.76 41.4901C23.96 41.6901 24.07 41.7001 24.27 41.4901C30.21 35.5701 36.14 29.6701 42 23.7301C43.1918 22.5875 44.0823 21.1677 44.5918 19.5973C45.1013 18.0268 45.2141 16.3547 44.92 14.7301C44.6801 12.8204 43.8909 11.0214 42.6483 9.5516C41.4058 8.08178 39.7631 7.00432 37.92 6.45006C36.1179 5.79642 34.1665 5.67128 32.2957 6.08939C30.4248 6.50749 28.7124 7.45143 27.36 8.81006C26.45 9.66006 25.59 10.5701 24.71 11.4501C24.6381 11.5594 24.5401 11.6492 24.4249 11.7113C24.3097 11.7734 24.1809 11.8059 24.05 11.8059C23.9191 11.8059 23.7903 11.7734 23.6751 11.7113C23.5599 11.6492 23.4619 11.5594 23.39 11.4501C22.51 10.5901 21.66 9.70006 20.77 8.85006C18.8307 6.93026 16.2088 5.85848 13.48 5.87006H13.47Z" fill="black"/>
<path d="M13.4692 6.87006L13.4692 6.87014L13.4822 6.87011C15.9487 6.86446 18.3164 7.83882 20.0645 9.57885L20.0718 9.58614L20.0793 9.59329C20.5888 10.0799 21.0594 10.554 21.5402 11.0382C21.8914 11.392 22.248 11.7513 22.6292 12.1248C22.7828 12.3252 22.9774 12.4913 23.2005 12.6115C23.4615 12.7523 23.7534 12.8259 24.0499 12.8259C24.3465 12.8259 24.6384 12.7523 24.8994 12.6115C25.1245 12.4902 25.3206 12.3222 25.4748 12.1194C25.7431 11.8505 26.0042 11.5847 26.2623 11.3219C26.8556 10.718 27.4326 10.1306 28.0425 9.5609L28.0584 9.54606L28.0737 9.53054C29.294 8.28706 30.8469 7.42181 32.5465 7.03845C34.246 6.6551 36.02 6.7699 37.656 7.36911L37.6837 7.37926L37.712 7.38775C39.3697 7.88626 40.847 8.85531 41.9646 10.1773C43.0822 11.4992 43.792 13.1172 44.0077 14.8348L44.0111 14.8616L44.0159 14.8882C44.2806 16.3504 44.1791 17.8553 43.7205 19.2687C43.262 20.6821 42.4606 21.96 41.3879 22.9882L41.3791 22.9967L41.3704 23.0054C37.6169 26.7844 33.8527 30.5457 30.0877 34.3078C28.0858 36.3082 26.0836 38.3088 24.0827 40.3125C23.2907 39.5274 22.4988 38.7427 21.707 37.9582C16.6878 32.985 11.6751 28.0184 6.71179 22.9878L6.70961 22.9856C5.56555 21.8332 4.73776 20.4054 4.30608 18.8399C3.8744 17.2745 3.85341 15.6242 4.24512 14.0483C4.63682 12.4724 5.42802 11.024 6.54239 9.84283C7.65675 8.66167 9.05669 7.78759 10.6072 7.30492L10.6072 7.30496L10.6162 7.30206C11.5378 7.00555 12.5012 6.85968 13.4692 6.87006ZM24.55 40.7754C24.5504 40.7757 24.5497 40.7752 24.548 40.7736C24.5491 40.7745 24.5497 40.7751 24.55 40.7754Z" stroke="black" stroke-width="2"/>
</g>
<defs>
<clipPath id="clip0_294_3">
<rect width="48" height="48" fill="white"/>
</clipPath>
</defs>
</svg>
