<svg xmlns="http://www.w3.org/2000/svg" viewBox="0 0 384 384"><defs><style>.cls-1{fill:none;}.cls-2{fill:#fff;}</style></defs><g id="Layer_2" data-name="Layer 2"><g id="Layer_1-2" data-name="Layer 1"><path class="cls-1" d="M192,383.93q-94.44,0-188.88.07c-2.48,0-3.1-.38-3.1-3Q.13,192.09,0,3.19C0,.34.77,0,3.32,0Q192,.11,380.7,0c2.6,0,3.3.4,3.3,3.21q-.13,188.7,0,377.41c0,2.94-.8,3.38-3.5,3.38Q286.24,383.87,192,383.93Zm-.74-32q51.06,0,102.11,0a61.35,61.35,0,0,0,10.06-.54c28.64-4.81,47.68-27.17,47.74-56.21.1-42.14,0-84.28,0-126.43,0-18.81-7.42-34-22.13-45.65q-50.87-40.22-101.8-80.35c-22-17.33-49.62-17.14-71.57.23Q105.41,82.74,55.06,122.39c-15.35,12-23.08,27.54-23,47.1.11,41.64,0,83.29.05,124.93a60.22,60.22,0,0,0,.6,10.06c5,28.62,27.32,47.41,56.46,47.45Q140.2,352,191.25,352Z"/><path class="cls-2" d="M191.25,352q-51,0-102.1,0c-29.14,0-51.51-18.83-56.46-47.45a60.22,60.22,0,0,1-.6-10.06c0-41.64.06-83.29-.05-124.93-.06-19.56,7.67-35.05,23-47.1Q105.49,82.82,155.69,43c21.95-17.37,49.54-17.56,71.57-.23q51,40.1,101.8,80.35c14.71,11.64,22.14,26.84,22.13,45.65,0,42.15.07,84.29,0,126.43-.06,29-19.1,51.4-47.74,56.21a61.35,61.35,0,0,1-10.06.54Q242.3,352,191.25,352Zm.38-15.91H293c25.25,0,42.27-16.94,42.28-42.09,0-41.52,0-83,0-124.58,0-14.2-5.46-25.53-16.68-34.2-6.91-5.32-13.7-10.8-20.54-16.2Q257.46,86.89,216.8,54.83c-11.41-9-24.16-11.19-38-6.83-6.81,2.14-12.15,6.67-17.62,11q-48.39,38.25-96.85,76.41c-10.55,8.31-16.3,19-16.32,32.48q-.11,63.78,0,127.57a40.91,40.91,0,0,0,1.16,10C53.74,323.81,69.22,336,88.39,336,122.8,336.1,157.22,336,191.63,336Z"/><path class="cls-1" d="M191.63,336c-34.41,0-68.83.06-103.24,0-19.17,0-34.65-12.21-39.27-30.57a40.91,40.91,0,0,1-1.16-10q0-63.78,0-127.57c0-13.48,5.77-24.17,16.32-32.48Q112.79,97.27,161.17,59c5.47-4.33,10.81-8.86,17.62-11,13.85-4.36,26.6-2.14,38,6.83q40.71,32,81.29,64.14c6.84,5.4,13.63,10.88,20.54,16.2,11.22,8.67,16.71,20,16.68,34.2-.08,41.53,0,83.06,0,124.58,0,25.15-17,42.08-42.28,42.09Zm0-56c-13,0-25.92,0-38.89,0-5.44,0-8.93,3.24-9,7.94s3.43,7.93,8.81,8.15c.75,0,1.49,0,2.24,0h73.66c.87,0,1.75,0,2.62,0,5.11-.31,8.48-3.58,8.42-8.15s-3.46-7.88-8.62-7.92C217.79,280,204.71,280.1,191.62,280.09Z"/><path class="cls-2" d="M191.62,280.1c13.09,0,26.17-.07,39.26,0,5.16,0,8.57,3.36,8.62,7.92s-3.31,7.84-8.42,8.15c-.87.05-1.75,0-2.62,0H154.8c-.75,0-1.49,0-2.24,0-5.38-.22-8.86-3.44-8.81-8.15s3.54-7.91,9-7.94C165.7,280,178.66,280.09,191.62,280.1Z"/></g></g></svg>