<svg xmlns="http://www.w3.org/2000/svg" viewBox="0 0 384 384"><defs><style>.cls-1{fill:none;}.cls-2{fill:#fff;}</style></defs><g id="Layer_2" data-name="Layer 2"><g id="Layer_1-2" data-name="Layer 1"><path class="cls-1" d="M.07,191.63Q.07,97.34,0,3.06C0,.5.5,0,3.06,0Q192,.12,380.94,0C383.5,0,384,.5,384,3.06q-.12,188.94,0,377.88c0,2.56-.5,3.06-3.06,3.06Q192,383.88,3.07,384C.5,384,0,383.5,0,380.94Q.14,286.27.07,191.63ZM286.18,320.15c11.6,0,23.19.05,34.79,0,13.76-.08,24.69-7.81,28.79-20.22,4-12.25-.09-24.77-11-33.1-4.16-3.18-8.39-6.25-12.54-9.44a23.09,23.09,0,0,1-9-15c-5-30-10-59.92-14.83-89.91-2.23-13.79-4.66-27.48-10.83-40.19-13.66-28.15-35.17-47.52-64.78-57.77-2.31-.8-3.5-1.69-3.24-4.39a26.48,26.48,0,0,0-.93-8.88c-3.88-15.47-18.37-26-33.56-24.35-17,1.82-29,14.47-29.27,31.64-.07,4.05-1.51,5.26-4.95,6.56C117,69.49,92.37,96.19,84.09,135.87c-6.81,32.63-11.55,65.71-16.52,98.69-1.77,11.75-6,21.11-16.37,27.31a62.65,62.65,0,0,0-8.36,6.27c-9,7.59-12.49,17.31-10.1,28.75,3,14.25,14.65,23.21,29.78,23.24q35.16.09,70.33,0c2.56,0,3.62.55,4.15,3.24a55.73,55.73,0,0,0,109.3-.24c.45-2.19,1.19-3,3.6-3C262,320.23,274.09,320.15,286.18,320.15Z"/><path class="cls-2" d="M286.18,320.15c-12.09,0-24.19.08-36.28-.07-2.41,0-3.15.82-3.6,3a55.73,55.73,0,0,1-109.3.24c-.53-2.69-1.59-3.26-4.15-3.24q-35.16.15-70.33,0c-15.13,0-26.81-9-29.78-23.24-2.39-11.44,1.14-21.16,10.1-28.75a62.65,62.65,0,0,1,8.36-6.27c10.41-6.2,14.6-15.56,16.37-27.31,5-33,9.71-66.06,16.52-98.69C92.37,96.19,117,69.49,154.84,55.11c3.44-1.3,4.88-2.51,4.95-6.56.31-17.17,12.27-29.82,29.27-31.64,15.19-1.63,29.68,8.88,33.56,24.35a26.48,26.48,0,0,1,.93,8.88c-.26,2.7.93,3.59,3.24,4.39,29.61,10.25,51.12,29.62,64.78,57.77,6.17,12.71,8.6,26.4,10.83,40.19,4.85,30,9.87,59.94,14.83,89.91a23.09,23.09,0,0,0,9,15c4.15,3.19,8.38,6.26,12.54,9.44,10.88,8.33,15,20.85,11,33.1-4.1,12.41-15,20.14-28.79,20.22C309.37,320.2,297.78,320.15,286.18,320.15ZM191.39,304H320.45c7.26,0,12.07-3.1,14.07-8.88,2.05-6,.07-11.47-5.8-15.94-4.36-3.32-8.84-6.48-13.1-9.92a38,38,0,0,1-14-23.56c-2.6-15-5-30-7.48-44.94-3.36-20.27-6.19-40.64-10.18-60.78A93.41,93.41,0,0,0,169.88,67.4c-37.67,9.42-61.84,33.4-70,71.13-7,32.58-11.51,65.72-16.63,98.69-2.11,13.55-6.17,25.6-17.86,33.91-4.06,2.89-8,5.9-12,9-4.86,3.83-6.52,9.1-4.8,14.6,1.93,6.17,6.75,9.33,14.46,9.33Zm.24,16.11c-11.85,0-23.69.07-35.53-.06-2.72,0-3.69.21-2.77,3.36a40,40,0,0,0,76.58,0c.91-3.13,0-3.39-2.76-3.36C215.31,320.22,203.47,320.15,191.63,320.15Zm-.12-287.32c-8.26,0-15.34,6.58-15.74,14.39-.1,2,.34,2.59,2.41,2.32a105.66,105.66,0,0,1,27.12,0c1.95.24,2.25-.43,2.19-2.19C207.21,39.45,200,32.78,191.51,32.83Z"/><path class="cls-1" d="M191.39,304H63.09c-7.71,0-12.53-3.16-14.46-9.33-1.72-5.5-.06-10.77,4.8-14.6,3.92-3.08,7.9-6.09,12-9,11.69-8.31,15.75-20.36,17.86-33.91,5.12-33,9.59-66.11,16.63-98.69,8.16-37.73,32.33-61.71,70-71.13A93.41,93.41,0,0,1,284,140c4,20.14,6.82,40.51,10.18,60.78,2.48,15,4.88,30,7.48,44.94a38,38,0,0,0,14,23.56c4.26,3.44,8.74,6.6,13.1,9.92,5.87,4.47,7.85,10,5.8,15.94-2,5.78-6.81,8.87-14.07,8.88Z"/><path class="cls-1" d="M191.63,320.15c11.84,0,23.68.07,35.52-.06,2.73,0,3.67.23,2.76,3.36a40,40,0,0,1-76.58,0c-.92-3.15,0-3.39,2.77-3.36C167.94,320.22,179.78,320.15,191.63,320.15Z"/><path class="cls-1" d="M191.51,32.83c8.45,0,15.7,6.62,16,14.54.06,1.76-.24,2.43-2.19,2.19a105.66,105.66,0,0,0-27.12,0c-2.07.27-2.51-.34-2.41-2.32C176.17,39.41,183.25,32.87,191.51,32.83Z"/></g></g></svg>