<svg width="384" height="384" viewBox="0 0 384 384" fill="none" xmlns="http://www.w3.org/2000/svg">
<g clip-path="url(#clip0_295_2)">
<path d="M286.18 320.15C274.09 320.15 261.99 320.23 249.9 320.08C247.49 320.08 246.75 320.9 246.3 323.08C243.803 335.721 237.003 347.107 227.057 355.299C217.111 363.491 204.634 367.984 191.748 368.012C178.863 368.041 166.366 363.603 156.384 355.454C146.402 347.306 139.552 335.95 137 323.32C136.47 320.63 135.41 320.06 132.85 320.08C109.41 320.18 85.9666 320.18 62.5199 320.08C47.3899 320.08 35.71 311.08 32.74 296.84C30.35 285.4 33.8799 275.68 42.8399 268.09C45.4471 265.771 48.2435 263.674 51.1999 261.82C61.6099 255.62 65.7999 246.26 67.57 234.51C72.57 201.51 77.2799 168.45 84.0899 135.82C92.3699 96.19 117 69.49 154.84 55.11C158.28 53.81 159.72 52.6 159.79 48.55C160.1 31.38 172.06 18.73 189.06 16.91C204.25 15.28 218.74 25.79 222.62 41.26C223.43 44.1461 223.745 47.1487 223.55 50.14C223.29 52.84 224.48 53.73 226.79 54.53C256.4 64.78 277.91 84.15 291.57 112.3C297.74 125.01 300.17 138.7 302.4 152.49C307.25 182.49 312.27 212.43 317.23 242.4C318.147 248.387 321.379 253.774 326.23 257.4C330.38 260.59 334.61 263.66 338.77 266.84C349.65 275.17 353.77 287.69 349.77 299.94C345.67 312.35 334.77 320.08 320.98 320.16C309.37 320.2 297.78 320.15 286.18 320.15ZM191.39 304H320.45C327.71 304 332.52 300.9 334.52 295.12C336.57 289.12 334.59 283.65 328.72 279.18C324.36 275.86 319.88 272.7 315.62 269.26C308.185 263.421 303.194 255.021 301.62 245.7C299.02 230.7 296.62 215.7 294.14 200.76C290.78 180.49 287.95 160.12 283.96 139.98C281.511 127.578 276.57 115.802 269.437 105.366C262.304 94.9291 253.127 86.049 242.461 79.2632C231.795 72.4774 219.863 67.9272 207.387 65.888C194.911 63.8489 182.151 64.3633 169.88 67.4C132.21 76.82 108.04 100.8 99.8799 138.53C92.8799 171.11 88.3699 204.25 83.25 237.22C81.1399 250.77 77.0799 262.82 65.3899 271.13C61.33 274.02 57.3899 277.03 53.3899 280.13C48.5299 283.96 46.8699 289.23 48.5899 294.73C50.5199 300.9 55.3399 304.06 63.0499 304.06L191.39 304ZM191.63 320.11C179.78 320.11 167.94 320.18 156.1 320.05C153.38 320.05 152.41 320.26 153.33 323.41C155.814 331.632 160.879 338.835 167.775 343.955C174.671 349.075 183.031 351.84 191.62 351.84C200.209 351.84 208.569 349.075 215.465 343.955C222.361 338.835 227.426 331.632 229.91 323.41C230.82 320.28 229.91 320.02 227.15 320.05C215.31 320.22 203.47 320.15 191.63 320.15V320.11ZM191.51 32.79C183.25 32.79 176.17 39.37 175.77 47.18C175.67 49.18 176.11 49.77 178.18 49.5C187.182 48.3351 196.297 48.3351 205.3 49.5C207.25 49.74 207.55 49.07 207.49 47.31C207.21 39.45 200 32.78 191.51 32.83V32.79Z" fill="black"/>
<path d="M191.39 299H191.391L320.483 299.02C320.483 299.02 320.484 299.02 320.484 299.02C323.423 299.016 325.45 298.389 326.82 297.521C328.136 296.687 329.169 295.429 329.835 293.505C330.521 291.514 330.475 289.829 329.929 288.322C329.361 286.754 328.104 284.985 325.731 283.178C324.275 282.069 322.743 280.934 321.181 279.776C318.308 277.646 315.333 275.442 312.545 273.191C304.15 266.588 298.513 257.096 296.732 246.564C294.846 235.726 293.063 224.845 291.283 213.983C290.606 209.851 289.929 205.721 289.247 201.598C288.178 195.15 287.17 188.734 286.166 182.344C283.984 168.462 281.821 154.698 279.096 140.974L279.094 140.964C276.785 129.22 272.115 118.066 265.367 108.179C258.62 98.2928 249.935 89.8794 239.839 83.4491C229.743 77.0189 218.447 72.7057 206.634 70.7709C194.824 68.8366 182.744 69.3201 171.127 72.1922C153.031 76.7183 138.432 84.6713 127.407 95.8067C116.388 106.935 108.712 121.47 104.807 139.526L191.39 299ZM191.39 299H63.0899C59.8887 299 57.7847 298.342 56.4109 297.452C55.1084 296.609 54.0674 295.305 53.402 293.178C52.3356 289.768 53.2016 286.619 56.519 284.002C60.3912 280.959 64.3049 278 68.3239 275.147L68.3269 275.145M191.39 299L68.3269 275.145M68.3269 275.145C81.6729 265.658 86.0491 251.937 88.2304 237.929L88.2308 237.927M68.3269 275.145L88.2308 237.927M88.2308 237.927C89.2668 231.249 90.2743 224.582 91.2799 217.927M88.2308 237.927L91.2799 217.927M91.2799 217.927C95.2638 191.562 99.2185 165.389 104.807 139.527L91.2799 217.927Z" stroke="black" stroke-width="10"/>
</g>
<defs>
<clipPath id="clip0_295_2">
<rect width="384" height="384" fill="white"/>
</clipPath>
</defs>
</svg>
